<svg xmlns="http://www.w3.org/2000/svg" viewBox="0 0 100 91.1"><defs><style>.a{fill:#4b4b4b;}.b{fill:#0a3e4f;}</style></defs><title>faq</title><path class="a" d="M100,34.27V66.87a10.87,10.87,0,0,1-8.59,10.56v9.63a4,4,0,0,1-4,4A4.45,4.45,0,0,1,84.47,90L72.26,77.74h-37A10.78,10.78,0,0,1,24.53,67.6l6.21-6.21H32V67a3.34,3.34,0,0,0,3.31,3.31H75.36l8.49,8.49V70.29h5.38A3.34,3.34,0,0,0,92.55,67V34.27A3.34,3.34,0,0,0,89.23,31H82.71V23.4h6.52A11,11,0,0,1,100,34.27Z"/><path class="b" d="M64.6,0H10.77A10.76,10.76,0,0,0,0,10.77V43.37A10.66,10.66,0,0,0,8.7,53.83v9.63a4,4,0,0,0,1.24,3,4.19,4.19,0,0,0,2.8,1.14,4,4,0,0,0,2.8-1.14L27.74,54.14H64.6A10.76,10.76,0,0,0,75.36,43.37V10.77A10.76,10.76,0,0,0,64.6,0ZM40.68,42.24A1.64,1.64,0,0,1,39,43.89H34.68A1.64,1.64,0,0,1,33,42.24v-2.8a1.64,1.64,0,0,1,1.66-1.66H39a1.64,1.64,0,0,1,1.66,1.66v2.8Zm6.94-16.56a12.64,12.64,0,0,1-4.35,3.73,5.27,5.27,0,0,0-2,2.07,5,5,0,0,0-.52,2,1.23,1.23,0,0,1-1.24,1H34.26A1.14,1.14,0,0,1,33,33.23a6.45,6.45,0,0,1,1-3.52A16.84,16.84,0,0,1,38.2,26a7.47,7.47,0,0,0,2.38-2.38,6.16,6.16,0,0,0,.93-3.31,4.18,4.18,0,0,0-1-3.11A3.74,3.74,0,0,0,37.58,16,3.78,3.78,0,0,0,35,17a3.9,3.9,0,0,0-.93,1.55,1.8,1.8,0,0,1-1.76,1.24l-4.87-.1a1.06,1.06,0,0,1-1-1.14,7.74,7.74,0,0,1,3-6,13.23,13.23,0,0,1,8.18-2.38c3.62,0,6.52.93,8.59,2.8a9.54,9.54,0,0,1,3.11,7.45A8.66,8.66,0,0,1,47.62,25.67Z"/></svg>