<svg xmlns="http://www.w3.org/2000/svg" viewBox="0 0 800.02 215.69"><defs><style>.a{fill:#fff;}</style></defs><title>logo_white</title><path class="a" d="M107.81,18V0A107.73,107.73,0,0,0,0,107.65q0,0.08,0,.16a108.61,108.61,0,0,0,1.49,18,106.56,106.56,0,0,0,4.65,18H107.81v-18h-88A89.89,89.89,0,0,1,107.81,18Z" transform="translate(0 0)"/><path class="a" d="M233.59,71.88H107.81v18h88a89.89,89.89,0,0,1-88,107.81v18A107.73,107.73,0,0,0,215.63,108.05q0-.12,0-0.24a108.56,108.56,0,0,0-1.49-18H233.6V71.88Z" transform="translate(0 0)"/><path class="a" d="M107.81,179.69a71.88,71.88,0,1,1,50.82-21.05A71.88,71.88,0,0,1,107.81,179.69Zm0-125.78a53.91,53.91,0,1,0,53.91,53.91A53.91,53.91,0,0,0,107.81,53.91Z" transform="translate(0 0)"/><path class="a" d="M604.59,144.87a38.18,38.18,0,1,1,38.18-38.18h0A38.23,38.23,0,0,1,604.59,144.87Zm0-67.38a29.2,29.2,0,1,0,29.2,29.2A29.2,29.2,0,0,0,604.59,77.49Z" transform="translate(0 0)"/><path class="a" d="M710.16,70.75v57a29.18,29.18,0,0,1-49.41-21v-36h-9v35.94l0.07,2.25a38.16,38.16,0,0,0,58.33,30.13v3.56h9V70.75h-9Z" transform="translate(0 0)"/><path class="a" d="M761.82,68.51a38,38,0,0,0-20.21,5.8V70.75h-9V178.57h9v-39.5A38.18,38.18,0,1,0,761.82,68.51Zm0,67.38a29.1,29.1,0,0,1-20.21-8.15V85.64A29.19,29.19,0,1,1,761.82,135.89Z" transform="translate(0 0)"/><path class="a" d="M409.18,79.74h29.2v-9h-29.2V34.81h-9v71.88a38.23,38.23,0,0,0,38.18,38.18v-9a29.23,29.23,0,0,1-29.2-29.2v-27Z" transform="translate(0 0)"/><path class="a" d="M285.64,106.69V34.81h-9v71.88a38.23,38.23,0,0,0,38.18,38.18v-9A29.23,29.23,0,0,1,285.64,106.69Z" transform="translate(0 0)"/><path class="a" d="M353,144.87a38.18,38.18,0,1,1,38.18-38.18h0A38.23,38.23,0,0,1,353,144.87Zm0-67.38a29.2,29.2,0,1,0,29.2,29.2A29.2,29.2,0,0,0,353,77.49Z" transform="translate(0 0)"/><path class="a" d="M501.27,70.75v3.56a38.18,38.18,0,1,0,0,64.76v24.61a29.1,29.1,0,0,1-20.21,8.15v9a38,38,0,0,0,20.21-5.8,38.48,38.48,0,0,0,9-7.8V70.75h-9Zm0,57a29.2,29.2,0,1,1,0-42.1v42.1Z" transform="translate(0 0)"/><path class="a" d="M532.71,82.12V70.75h-9v71.88h9V106.69a29.23,29.23,0,0,1,29.2-29.2v-9A38.11,38.11,0,0,0,532.71,82.12Z" transform="translate(0 0)"/></svg>