<svg xmlns="http://www.w3.org/2000/svg" viewBox="0 0 60 60"><defs><style>.a{fill:#ccc;}.b{fill:#0a3e4f;}</style></defs><title>boxes</title><path class="a" d="M30,2A28,28,0,1,1,2,30,28,28,0,0,1,30,2m0-2A30,30,0,1,0,60,30,30,30,0,0,0,30,0h0Z"/><path class="b" d="M49.17,21.48c0-.07,0-0.37,0-0.37V21l0-.17A1.42,1.42,0,0,0,49,20.65L42.28,13.2a0.8,0.8,0,0,0-.65-0.2H19a0.85,0.85,0,0,0-.68.2l-6.75,7.65a0.4,0.4,0,0,0-.16.13,1.22,1.22,0,0,0-.17.18L11,21.27V46.36A2.33,2.33,0,0,0,12.25,48H48.3c0.47,0,.7-1.17.7-1.65V22h0ZM33,46V35.82l2.22,2.3a0.45,0.45,0,0,0,.34.16A0.65,0.65,0,0,0,36,38.05a0.65,0.65,0,0,0,0-.85L32.64,33.8a0.64,0.64,0,0,0-.91,0l-3.4,3.41a0.63,0.63,0,0,0-.14.47,0.68,0.68,0,0,0,.25.44,0.81,0.81,0,0,0,.48.16,1.48,1.48,0,0,0,.68-0.17l2.39-2V46H13V23H47V46H42V35.82l2.31,2.3a0.65,0.65,0,0,0,.43.16,0.65,0.65,0,0,0,.49-0.23,0.65,0.65,0,0,0,0-.85L41.82,33.8a0.64,0.64,0,0,0-.92,0l-3.4,3.41a0.63,0.63,0,0,0-.15.47,0.66,0.66,0,0,0,.24.44,0.75,0.75,0,0,0,.46.16,1,1,0,0,0,.55-0.17L41,35.9V46H33ZM14.18,21l2.47-3H43.9l2.46,3H14.18Zm27-6,1.57,2h-25l1.57-2H41.19Z"/></svg>