<svg xmlns="http://www.w3.org/2000/svg" viewBox="0 0 60 60"><defs><style>.a{fill:#ccc;}.b{fill:#0a3e4f;}</style></defs><title>brilliant</title><path class="a" d="M30,2A28,28,0,1,1,2,30,28,28,0,0,1,30,2m0-2A30,30,0,1,0,60,30,30,30,0,0,0,30,0h0Z"/><path class="b" d="M51.4,25.25V25l-0.07-.19v0l0-.07v0l-0.06-.08-6.75-7.81a0.86,0.86,0,0,0-.33-0.24l-7.68-3A0.85,0.85,0,0,0,36,13.5H23.74l-0.08,0h0l-0.06,0h0l-7.68,3a0.86,0.86,0,0,0-.33.24L8.81,24.65l-0.06.08v0l0,0.07v0L8.62,25v0.23h0v0.12l0,0.1h0l0,0.09v0l0,0.07h0L8.8,25.76l0,0,0,0L29.39,46.25h0l0,0,0,0h0l0,0,0,0,0.05,0h0l0,0h0l0,0h0.51l0,0h0l0,0h0l0.06,0h0l0.05,0h0l0,0,0,0h0L51.14,25.82l0,0,0,0,0.06-.08h0l0-.07v0l0-.09h0l0-.1V25.26h0Zm-8.12-7.13L45.77,21,42.6,18.9a0.86,0.86,0,0,0-.3-0.13l-2.17-1.89ZM39.29,30L37.1,24.42l5-3.82,6.77,4.51ZM17.84,20.67l5,3.86L20.71,30l-9.56-4.88Zm6.38-5.45h11.4l5,4.35-5,3.81H24.19l-5-3.81Zm0.26,9.88h11l2.05,5.23H22.43Zm-7.76-7L19.56,17l-2.21,1.93L14.23,21ZM14,28.47l6.61,3.37,5,8.16ZM30,44L22.7,32H37.3Zm4.45-4,5-8.16L46,28.47Z"/></svg>