<svg xmlns="http://www.w3.org/2000/svg" viewBox="0 0 60 60"><defs><style>.a{fill:#ccc;}.b{fill:#0a3e4f;}</style></defs><title>support</title><path class="a" d="M30,2A28,28,0,1,1,2,30,28,28,0,0,1,30,2m0-2A30,30,0,1,0,60,30,30,30,0,0,0,30,0h0Z"/><path class="b" d="M30,49.51a19.49,19.49,0,1,1,13.8-5.71A19.39,19.39,0,0,1,30,49.51Zm-8.73-4.37,0.35,0.19a17.45,17.45,0,0,0,16.75,0l0.35-.19-5.08-5.08-0.18.06a10.81,10.81,0,0,1-6.94,0l-0.18-.06Zm17.67-9.24a11.12,11.12,0,0,1-3,3l-0.31.2L40.46,44l0.21-.16a17.69,17.69,0,0,0,1.68-1.47,17.41,17.41,0,0,0,1.48-1.69L44,40.46,39.15,35.6ZM16,40.46l0.16,0.21a17.35,17.35,0,0,0,1.48,1.69,17.62,17.62,0,0,0,1.68,1.47L19.54,44l4.85-4.85-0.31-.2a11.14,11.14,0,0,1-3-3l-0.2-.31ZM40.08,26.35l0.06,0.18a10.84,10.84,0,0,1,0,6.95l-0.06.18,5.08,5.07,0.19-.35a17.36,17.36,0,0,0,0-16.72l-0.19-.35Zm-25.41-4.7a17.36,17.36,0,0,0,0,16.72l0.19,0.35,5.08-5.07-0.06-.18a10.84,10.84,0,0,1,0-6.95l0.06-.18-5.07-5.05ZM30,21.32a8.68,8.68,0,1,0,6.13,2.55A8.62,8.62,0,0,0,30,21.32Zm5.6-.46,0.31,0.2a10.44,10.44,0,0,1,3,3l0.2,0.31L44,19.54l-0.16-.21a17.76,17.76,0,0,0-1.48-1.69,17.45,17.45,0,0,0-1.68-1.47L40.46,16ZM19.33,16.17a17,17,0,0,0-3.16,3.16L16,19.54l4.87,4.86,0.2-.31a10.46,10.46,0,0,1,3-3l0.31-.2L19.54,16ZM30,19.29a10.75,10.75,0,0,1,3.47.58l0.18,0.06,5.08-5.08-0.35-.19a17.44,17.44,0,0,0-16.75,0l-0.35.19,5.08,5.08,0.18-.06A10.75,10.75,0,0,1,30,19.29Z"/></svg>